HIERARCHY
ROOT Hips
{
    OFFSET 0.000000 0.000000 0.000000
    CHANNELS 6 Xposition Yposition Zposition Zrotation Xrotation Yrotation
    JOINT Spine
    {
        OFFSET -0.000000 14.517291 0.000000
        CHANNELS 3 Zrotation Xrotation Yrotation
        JOINT Spine1
        {
            OFFSET -0.000000 37.558300 0.000000
            CHANNELS 3 Zrotation Xrotation Yrotation
            JOINT Neck
            {
                OFFSET -0.000000 37.404057 3.400369
                CHANNELS 3 Zrotation Xrotation Yrotation
                JOINT Head
                {
                    OFFSET -0.000000 24.785618 -3.540803
                    CHANNELS 3 Zrotation Xrotation Yrotation
                    End Site
                    {
                        OFFSET -0.000000 35.408028 0.000000
                    }
                }
            }
            JOINT LeftShoulder
            {
                OFFSET 6.992933 33.973492 -0.192664
                CHANNELS 3 Zrotation Xrotation Yrotation
                JOINT LeftArm
                {
                    OFFSET 21.527611 0.000000 0.000000
                    CHANNELS 3 Zrotation Xrotation Yrotation
                    JOINT LeftForeArm
                    {
                        OFFSET 56.353916 0.000000 0.000000
                        CHANNELS 3 Zrotation Xrotation Yrotation
                        JOINT LeftHand
                        {
                            OFFSET 47.774071 0.000000 0.000000
                            CHANNELS 3 Zrotation Xrotation Yrotation
                            End Site
                            {
                                OFFSET 26.556021 0.000000 0.000000
                            }
                        }
                    }
                }
            }
            JOINT RightShoulder
            {
                OFFSET -7.065357 33.973492 -0.192664
                CHANNELS 3 Zrotation Xrotation Yrotation
                JOINT RightArm
                {
                    OFFSET -21.527611 0.000000 0.000000
                    CHANNELS 3 Zrotation Xrotation Yrotation
                    JOINT RightForeArm
                    {
                        OFFSET -56.353916 0.000000 0.000000
                        CHANNELS 3 Zrotation Xrotation Yrotation
                        JOINT RightHand
                        {
                            OFFSET -47.774071 0.000000 0.000000
                            CHANNELS 3 Zrotation Xrotation Yrotation
                            End Site
                            {
                                OFFSET -26.556021 0.000000 0.000000
                            }
                        }
                    }
                }
            }
        }
    }
    JOINT LeftUpLeg
    {
        OFFSET 17.704014 0.000000 0.000000
        CHANNELS 3 Zrotation Xrotation Yrotation
        JOINT LeftLeg
        {
            OFFSET -0.000000 -81.181816 0.000000
            CHANNELS 3 Zrotation Xrotation Yrotation
            JOINT LeftFoot
            {
                OFFSET -0.000000 -62.821102 0.000000
                CHANNELS 3 Zrotation Xrotation Yrotation
                JOINT LeftToeBase
                {
                    OFFSET -0.000000 -11.507608 26.556021
                    CHANNELS 3 Zrotation Xrotation Yrotation
                    End Site
                    {
                        OFFSET -0.000000 0.000000 7.081605
                    }
                }
            }
        }
    }
    JOINT RightUpLeg
    {
        OFFSET -17.704014 0.000000 0.000000
        CHANNELS 3 Zrotation Xrotation Yrotation
        JOINT RightLeg
        {
            OFFSET -0.000000 -81.181816 0.000000
            CHANNELS 3 Zrotation Xrotation Yrotation
            JOINT RightFoot
            {
                OFFSET -0.000000 -62.821102 0.000000
                CHANNELS 3 Zrotation Xrotation Yrotation
                JOINT RightToeBase
                {
                    OFFSET -0.000000 -11.507608 26.556021
                    CHANNELS 3 Zrotation Xrotation Yrotation
                    End Site
                    {
                        OFFSET -0.000000 0.000000 7.081605
                    }
                }
            }
        }
    }
}
MOTION
Frames:    8
Frame Time:    0.008333
18.283068    157.470123    1.909128    0.163815    20.143242    -4.703962    1.128282    6.327864    12.278503    -5.971634    -2.113832    3.997976    18.464611    -7.074182    8.651213    -10.614745    -8.553370    2.783835    5.361722    2.393412    -7.257948    -45.813095    17.590275    -40.236980    -5.042953    -18.682972    -125.606216    1.116407    -27.753012    -3.953660    -13.292431    -4.117494    5.404948    27.619253    -20.898701    70.434860    1.724348    -22.760494    13.211297    14.268632    -17.782030    41.994358    4.166311    -49.319328    -20.739185    -16.673395    31.409155    -10.782083    -1.356786    -2.820959    42.857544    0.000000    0.000000    0.000000    1.123986    -3.249031    -21.458397    2.582151    14.893687    -10.670434    9.203013    -15.626111    -9.516963    0.000000    0.000000    0.000000    
18.172493    157.452225    1.601795    0.102569    19.818493    -4.676579    1.174371    6.155397    12.292687    -5.941261    -2.059794    4.006561    18.415014    -7.101515    8.599785    -10.573274    -8.437463    2.755873    5.341975    2.375829    -7.286342    -45.816395    17.650404    -40.187107    -5.022999    -18.744522    -125.623558    0.951115    -27.774355    -3.982503    -13.315310    -4.046059    5.403929    27.677242    -20.885662    70.522362    1.768602    -22.811029    13.220276    14.440748    -17.789021    41.894489    4.260209    -49.032063    -20.624662    -16.561958    31.276262    -10.858052    -1.455074    -2.681850    42.808460    0.000000    0.000000    0.000000    1.192266    -3.074505    -21.446621    2.566238    15.033222    -10.650339    9.140183    -15.821714    -9.497146    0.000000    0.000000    0.000000    
18.069813    157.440170    1.302553    0.047524    19.432716    -4.632818    1.226748    6.068185    12.286016    -5.938386    -2.035511    4.006398    18.310535    -7.141383    8.554371    -10.423743    -8.315555    2.767745    5.321197    2.358828    -7.277366    -45.819199    17.677309    -40.157265    -5.043422    -18.692577    -125.636803    0.921899    -27.762651    -3.932908    -13.320328    -4.018923    5.389126    27.686392    -20.771084    70.604088    1.737178    -22.895098    13.167409    14.468102    -17.864491    41.872852    4.337070    -48.672539    -20.597357    -16.500790    31.089844    -10.901457    -1.562220    -2.537828    42.771275    0.000000    0.000000    0.000000    1.237688    -2.824130    -21.440613    2.578659    15.158776    -10.579566    9.028019    -16.020082    -9.544937    0.000000    0.000000    0.000000    
17.953066    157.417709    1.012444    -0.027098    19.049166    -4.580883    1.290154    5.952997    12.276726    -5.921882    -1.986114    4.006963    18.303772    -7.177223    8.523031    -10.433161    -8.169978    2.741557    5.318181    2.380036    -7.261638    -45.770775    17.731388    -40.180286    -5.066088    -18.695452    -125.662392    0.991649    -27.811691    -3.891706    -13.361885    -4.000675    5.383405    27.873674    -20.744205    70.727562    1.750503    -22.760635    13.064824    13.977465    -17.903894    41.899418    4.414501    -48.313053    -20.521912    -16.377743    30.937653    -10.971991    -1.674567    -2.422216    42.701836    0.000000    0.000000    0.000000    1.314021    -2.569540    -21.432720    2.575043    15.280183    -10.530840    8.951149    -16.217205    -9.555508    0.000000    0.000000    0.000000    
17.841953    157.391785    0.702565    -0.104413    18.691454    -4.560190    1.383206    5.829298    12.288435    -5.955332    -1.945641    4.013665    18.213564    -7.294768    8.466391    -10.260912    -7.916933    2.741928    5.335977    2.312002    -7.228874    -45.781616    17.801378    -40.130016    -5.074136    -18.625710    -125.656105    1.025098    -27.760345    -3.875033    -13.365437    -3.919519    5.380589    27.844435    -20.656342    70.781837    1.741006    -22.862204    13.063873    14.092982    -17.975275    41.822121    4.539532    -47.986191    -20.445780    -16.299305    30.775787    -11.048787    -1.771009    -2.309534    42.689396    0.000000    0.000000    0.000000    1.395854    -2.359514    -21.411034    2.555115    15.422724    -10.432061    8.856500    -16.431082    -9.598924    0.000000    0.000000    0.000000    
17.734924    157.370926    0.392598    -0.161393    18.306358    -4.537349    1.443861    5.730382    12.294717    -5.951129    -1.908967    4.018474    18.120775    -7.337042    8.402753    -10.153446    -7.754450    2.725780    5.317217    2.276159    -7.250380    -45.765839    17.817993    -40.042133    -5.132758    -18.534426    -125.707466    0.980154    -27.786098    -3.929360    -13.398305    -3.900729    5.355312    27.923161    -20.539646    70.872093    1.743281    -22.867004    13.029522    14.154174    -17.965836    41.759651    4.630343    -47.633312    -20.415207    -16.238558    30.600510    -11.076639    -1.890722    -2.183393    42.657024    0.000000    0.000000    0.000000    1.456087    -2.122114    -21.397348    2.529007    15.560936    -10.337916    8.775292    -16.641111    -9.615407    0.000000    0.000000    0.000000    
17.628675    157.356583    0.075985    -0.215646    17.929365    -4.524713    1.483732    5.605872    12.289722    -5.888093    -1.864024    4.020468    17.922716    -7.388137    8.331054    -9.938557    -7.564069    2.747347    5.250726    2.265640    -7.258024    -45.712337    17.846567    -39.983707    -5.195723    -18.480314    -125.771080    1.169685    -27.862288    -3.798013    -13.466314    -3.862891    5.397805    27.973099    -20.463724    70.928459    1.765125    -22.843910    13.010536    14.100975    -17.978842    41.647858    4.724221    -47.293407    -20.393639    -16.178968    30.431343    -11.132401    -2.018816    -2.050906    42.669983    0.000000    0.000000    0.000000    1.517602    -1.892730    -21.401436    2.497716    15.686642    -10.210383    8.688034    -16.841547    -9.659090    0.000000    0.000000    0.000000    
17.524471    157.331177    -0.239467    -0.275272    17.558123    -4.496914    1.543147    5.461389    12.284970    -5.850722    -1.811973    4.022667    17.856567    -7.314511    8.259249    -9.916587    -7.488143    2.709620    5.206351    2.252325    -7.271422    -45.722267    17.844501    -39.923832    -4.928012    -18.831030    -125.610596    -0.209537    -27.651934    -4.298967    -13.503498    -3.815001    5.417265    28.048347    -20.383286    71.016808    1.788057    -22.843494    12.954321    14.111339    -17.970530    41.690117    4.809104    -46.955090    -20.382912    -16.114477    30.252834    -11.184632    -2.134991    -1.927262    42.677807    0.000000    0.000000    0.000000    1.584273    -1.657327    -21.414362    2.480329    15.799067    -10.105146    8.595853    -17.059958    -9.697403    0.000000    0.000000    0.000000    
